<svg width="924" height="535" viewBox="0 0 924 535" fill="none" xmlns="http://www.w3.org/2000/svg">
  <path
    d="M840.58 368.849V457.878H83.4199V368.849L0 0.00721478C102.665 22.7752 135.265 154.034 135.265 154.034C283.134 220.995 128.335 313.272 128.335 313.272V332.734L169.655 368.856H371.65L411.173 284.022C398.338 294.576 381.785 300.812 363.688 300.812C322.375 300.805 288.75 267.484 288.75 226.402C288.75 189.391 315.957 158.74 351.503 153.016C355.227 82.9362 465.848 26.7166 465.848 26.7166C465.848 26.7166 577.5 83.4415 580.452 153.904C613.947 161.281 638.975 190.914 638.975 226.402C638.975 267.484 605.35 300.805 563.9 300.805C545.55 300.805 528.867 294.323 515.772 283.509L555.425 368.849H754.345L795.665 332.727V313.265C795.665 313.265 638.968 226.394 788.735 154.026C788.735 154.026 831.47 17.4261 924 0L840.58 368.849ZM841.158 483.317H82.8424V534.195H841.165L841.158 483.317Z"
    fill="hsl(16, 80%, 50%)" />
</svg>